<svg version="1.1" id="Layer_1" xmlns="http://www.w3.org/2000/svg" xmlns:xlink="http://www.w3.org/1999/xlink" x="0px" y="0px"
	 width="100%" viewBox="0 0 1024 1024" enable-background="new 0 0 1024 1024" xml:space="preserve">
<path fill="#000000" opacity="1.000000" stroke="none" 
	d="
M651.454834,364.558716 
	C654.536194,358.234314 657.593262,352.308716 660.328796,346.238251 
	C661.679688,343.240326 663.638000,341.932678 666.867432,341.943909 
	C679.532654,341.987946 692.198730,341.989532 704.863220,341.872803 
	C707.830017,341.845490 709.381714,343.237488 710.595093,345.726074 
	C727.674805,380.755432 744.803650,415.760834 761.916138,450.774170 
	C780.127136,488.035095 798.332886,525.298584 816.544922,562.558960 
	C817.194824,563.888428 818.177063,565.101807 817.911499,566.777954 
	C816.661804,568.632446 814.666748,568.151123 812.923767,568.157471 
	C797.758850,568.212646 782.592896,568.121460 767.429138,568.267944 
	C764.073914,568.300354 762.275818,566.932861 760.909363,564.037659 
	C756.359436,554.396729 751.427063,544.930969 747.078247,535.202759 
	C744.828857,530.170776 741.910583,528.088989 736.115967,528.154602 
	C707.122314,528.482788 678.123047,528.334167 649.125793,528.317688 
	C646.828796,528.316406 644.475464,528.724121 642.235046,527.835083 
	C640.856140,525.826477 642.286133,524.288269 643.071472,522.756409 
	C648.922913,511.342468 654.939636,500.011932 660.670776,488.538483 
	C662.568359,484.739685 665.121460,483.316284 669.344727,483.503265 
	C683.821533,484.144287 698.310547,482.288177 712.802063,483.601501 
	C715.578003,483.853027 718.469849,483.889587 720.962097,482.228943 
	C721.587708,479.754700 720.218689,477.890594 719.311401,476.008362 
	C709.475891,455.603333 699.588379,435.223175 689.642151,414.871887 
	C688.748413,413.043152 688.383789,410.279144 685.615051,410.343414 
	C682.955811,410.405121 682.464478,413.037598 681.547974,414.908112 
	C657.656799,463.668976 633.724548,512.410095 610.041077,561.271790 
	C607.501282,566.511475 604.491516,568.573914 598.594177,568.365479 
	C585.444885,567.900635 572.268311,568.228027 559.103210,568.164185 
	C557.192017,568.154968 555.063904,568.740295 553.038086,566.486694 
	C556.372070,557.508118 562.512756,549.497925 565.219727,539.331116 
	C527.423645,576.071289 483.088318,574.687256 437.086060,563.855103 
	C436.860077,563.280273 436.634094,562.705505 436.408142,562.130737 
	C441.869446,557.094238 447.356873,552.085632 452.782990,547.011536 
	C456.432922,543.598328 460.004425,540.100891 463.594055,536.623657 
	C464.985565,535.275635 466.150330,533.805359 464.519409,531.892334 
	C463.100464,530.227905 461.319855,530.328247 459.505890,531.142273 
	C457.159729,532.195190 455.535614,534.159851 453.772064,535.907898 
	C434.743225,554.768921 413.049225,569.544006 386.842346,576.027283 
	C345.509857,586.252563 307.567993,580.009399 276.410919,548.901672 
	C258.963257,531.481628 249.749222,509.829529 247.472885,485.161469 
	C243.949112,446.975586 256.570648,414.622375 283.108429,387.682251 
	C296.883148,373.698669 313.825531,364.367279 332.872131,359.154785 
	C334.206451,358.789642 335.618530,357.903625 337.078705,358.994812 
	C336.901154,360.601379 335.487000,360.628723 334.513794,361.038666 
	C297.243195,376.738617 276.879852,405.862946 270.322876,444.672272 
	C263.120209,487.303192 289.600708,526.630188 331.589844,536.879272 
	C354.018219,542.353760 375.609924,538.776733 395.869720,527.741943 
	C407.487610,521.414124 418.231781,513.791931 427.336975,504.139862 
	C430.719208,500.554443 433.182129,500.594116 436.147583,504.311920 
	C437.486084,505.990051 439.315155,507.266449 440.797577,508.841888 
	C450.432312,519.081055 461.839966,525.162659 476.276154,525.577515 
	C489.477600,525.956909 502.317200,525.224182 513.929810,518.214417 
	C528.201599,509.599426 534.484802,496.657227 531.253296,483.186737 
	C527.985352,469.564514 516.006042,460.071503 500.250641,458.234680 
	C485.119720,456.470673 469.955414,457.752808 454.813110,457.343292 
	C452.351318,457.276703 449.820862,457.769806 447.392426,456.654541 
	C446.593323,453.925812 448.869659,452.747437 450.236572,451.298492 
	C467.843262,432.635498 485.515839,414.034607 503.167267,395.413788 
	C504.427368,394.084564 505.848755,392.852722 506.850220,391.346283 
	C508.545441,388.796326 507.991241,386.833282 504.704346,386.411957 
	C502.899170,386.180542 501.043518,386.328766 499.210632,386.329437 
	C469.546844,386.340332 439.883087,386.363953 410.219299,386.346924 
	C408.442261,386.345886 406.541901,386.800781 404.971222,385.594788 
	C404.151031,383.880280 405.181824,382.633698 405.917999,381.368347 
	C412.786926,369.561462 419.744202,357.805328 426.521759,345.946411 
	C428.237976,342.943573 430.513428,341.920013 433.853149,341.924164 
	C488.513672,341.992462 543.174316,341.982819 597.834900,342.013153 
	C599.446594,342.014038 601.229126,341.667450 602.761841,343.784607 
	C600.467957,347.976746 596.752686,351.340240 593.594543,355.057709 
	C576.014343,375.751343 558.267334,396.303101 540.640259,416.957153 
	C535.372620,423.129395 535.724304,424.449860 542.872375,427.728271 
	C569.696838,440.031036 585.012512,463.190552 584.159607,490.027008 
	C584.028442,494.153290 582.543518,498.203796 584.565857,502.905884 
	C606.809875,456.903198 629.053894,410.900513 651.454834,364.558716 
z"/>
<path fill="#000000" opacity="1.000000" stroke="none" 
	d="
M245.697205,347.718689 
	C264.368958,326.781342 286.616272,312.055573 313.647217,305.450958 
	C349.368835,296.722870 382.661133,303.185425 413.501495,322.928070 
	C418.585358,326.182526 418.604279,326.659058 414.458374,331.129669 
	C405.967285,340.285736 397.414642,349.384766 388.938232,358.554321 
	C387.381226,360.238678 386.009277,360.828278 383.762482,359.566925 
	C355.042297,343.443756 326.516846,346.563751 299.209320,362.342499 
	C263.863403,382.765900 244.722321,414.726288 238.354172,454.500641 
	C234.199371,480.450867 238.973892,505.173859 250.744080,528.598022 
	C251.405243,529.913879 251.959015,531.283630 252.653625,532.830566 
	C244.373398,529.648438 222.224594,497.097229 215.381058,470.253326 
	C203.607391,424.070984 215.272171,383.779327 245.697205,347.718689 
z"/>
<path fill="#000000" opacity="1.000000" stroke="none" 
	d="
M269.000000,679.850098 
	C453.595886,679.754333 637.691345,679.831177 822.485596,679.899658 
	C820.773438,685.040710 817.702393,684.005371 815.332825,684.011169 
	C782.671326,684.090393 750.009644,684.081177 717.347961,684.089111 
	C655.191223,684.104187 593.034546,684.117676 530.877808,684.129333 
	C468.924469,684.140930 406.971100,684.168518 345.017761,684.152710 
	C303.859955,684.142212 262.702118,684.080811 221.544403,683.986877 
	C219.254913,683.981628 216.559250,684.795715 214.699341,682.042969 
	C216.334885,679.362488 218.844376,679.951477 221.005203,679.941345 
	C236.836594,679.867126 252.668350,679.871460 269.000000,679.850098 
z"/>
<path fill="#000000" opacity="1.000000" stroke="none" 
	d="
M316.302124,520.785950 
	C289.822296,503.003601 277.561188,472.354980 284.303955,441.330353 
	C287.835449,425.081268 294.592438,410.443451 306.023071,398.172668 
	C306.860291,397.273956 307.353790,395.815369 309.829620,395.916992 
	C293.921997,422.187683 290.613983,449.708130 301.340057,478.188629 
	C312.067200,506.671967 331.734497,525.687744 362.597748,532.267151 
	C353.016327,535.442749 332.334473,530.240112 316.302124,520.785950 
z"/>
<path fill="#000000" opacity="1.000000" stroke="none" 
	d="
M325.085907,629.827148 
	C325.090820,627.708069 325.135132,626.041077 325.069946,624.378479 
	C324.963470,621.662537 325.656616,619.847595 328.927551,619.970032 
	C331.848267,620.079407 333.664581,620.798950 333.458405,624.294678 
	C333.007843,631.935181 334.487030,639.582336 333.509247,647.234924 
	C333.235229,649.379639 334.516815,652.225037 331.254700,653.070618 
	C328.379303,653.816040 326.134155,652.639099 324.320435,650.288086 
	C321.168701,646.202698 317.882263,642.221252 314.651306,638.197021 
	C313.950348,637.323914 313.245239,636.454102 312.542023,635.582764 
	C312.123810,635.756653 311.705566,635.930542 311.287323,636.104431 
	C311.287323,640.045898 311.272186,643.987488 311.292511,647.928894 
	C311.306854,650.716675 311.391541,653.273560 307.320007,653.299011 
	C303.096771,653.325317 302.926636,650.757996 302.943939,647.693054 
	C302.985291,640.366943 302.916626,633.040039 302.993591,625.714539 
	C303.015198,623.658508 302.398254,621.075256 305.264435,620.283569 
	C307.815674,619.578918 310.234741,619.974670 312.024719,622.231018 
	C315.438751,626.534424 318.850342,630.839783 322.272461,635.136719 
	C322.770599,635.762207 323.193115,636.526184 324.309326,636.498108 
	C325.447571,634.562500 324.756287,632.348267 325.085907,629.827148 
z"/>
<path fill="#000000" opacity="1.000000" stroke="none" 
	d="
M427.133728,653.203125 
	C423.077271,653.123718 422.975159,650.532959 422.965851,647.940491 
	C422.938965,640.459595 422.912170,632.978394 422.967560,625.497864 
	C422.982941,623.418762 422.490509,620.861389 425.373688,620.164673 
	C427.891266,619.556274 430.305969,619.775696 432.103333,622.127808 
	C435.130707,626.089661 438.228912,629.998047 441.336823,633.897400 
	C442.130249,634.892822 442.603790,636.266479 445.031952,636.736633 
	C445.031952,632.683228 445.086670,628.791809 445.013641,624.902893 
	C444.960754,622.085571 445.459991,620.031555 448.989349,619.976746 
	C452.591370,619.920898 453.476166,621.659302 453.412689,624.925659 
	C453.260895,632.735962 453.399719,640.551575 453.352081,648.364624 
	C453.341461,650.108093 453.854950,652.358521 451.472198,652.969482 
	C449.188782,653.555115 446.866547,653.537537 445.146088,651.311646 
	C441.893738,647.103699 438.574890,642.946777 435.248718,638.796692 
	C434.355652,637.682373 433.844971,636.096313 431.308563,635.822937 
	C431.308563,640.190491 431.252167,644.449585 431.329163,648.706299 
	C431.377350,651.369568 430.845703,653.382690 427.133728,653.203125 
z"/>
<path fill="#000000" opacity="1.000000" stroke="none" 
	d="
M571.988647,649.781006 
	C571.395508,653.500122 568.886414,653.255981 566.550720,653.067322 
	C563.746216,652.840820 563.799927,650.634277 563.789612,648.609497 
	C563.748901,640.626770 563.844238,632.641541 563.669861,624.662048 
	C563.592957,621.143066 565.152161,619.885681 568.437805,619.965149 
	C571.595276,620.041565 574.762085,619.832275 577.915222,619.968811 
	C583.653198,620.217163 588.982910,621.534058 591.277832,627.626099 
	C593.448608,633.388672 591.138489,637.986084 586.717712,641.848145 
	C587.030396,645.855286 591.200684,648.003723 591.688782,652.255493 
	C587.805176,653.788330 584.407043,653.972412 581.872009,649.916931 
	C581.255798,648.931152 580.509827,648.026428 579.893616,647.040649 
	C578.537781,644.871460 576.760376,643.503906 574.095276,644.298950 
	C571.431396,645.093628 572.397339,647.534180 571.988647,649.781006 
M572.144470,632.415222 
	C571.768738,636.201172 573.944824,636.971313 577.092896,636.617126 
	C580.015442,636.288269 583.167236,635.767090 583.333252,632.183228 
	C583.496887,628.650696 580.745544,627.544373 577.599731,627.339111 
	C574.493958,627.136536 571.744873,627.312927 572.144470,632.415222 
z"/>
<path fill="#000000" opacity="1.000000" stroke="none" 
	d="
M785.203125,628.066833 
	C786.092712,632.932617 785.602600,637.153809 782.053284,640.369751 
	C780.173950,642.072449 780.919495,643.442627 781.783997,645.168884 
	C782.939392,647.476135 785.244751,649.226074 785.350647,652.373413 
	C781.360046,653.843506 777.965637,653.922485 775.593079,649.674866 
	C774.868835,648.378296 773.877502,647.230103 773.000000,646.020081 
	C771.789734,644.351257 770.135681,643.833923 768.171570,644.241577 
	C765.963745,644.699951 766.027649,646.530640 765.962585,648.168884 
	C765.844360,651.142517 765.184448,653.327576 761.432251,653.217102 
	C757.355103,653.096985 757.630249,650.368225 757.632874,647.661682 
	C757.640198,640.016724 757.763794,632.369690 757.614014,624.727844 
	C757.546936,621.303650 758.869751,619.844604 762.262024,619.951660 
	C765.748657,620.061646 769.255249,619.791626 772.727539,620.042603 
	C778.114258,620.431763 782.834900,622.159668 785.203125,628.066833 
M774.994141,628.339050 
	C766.863586,625.661682 764.975281,627.300781 766.680420,635.886230 
	C769.755066,636.023926 773.114502,637.941711 775.774780,634.691711 
	C777.295105,632.834412 777.246521,630.727661 774.994141,628.339050 
z"/>
<path fill="#000000" opacity="1.000000" stroke="none" 
	d="
M284.446594,650.640259 
	C277.553802,654.758850 270.841431,654.923828 264.309326,650.995972 
	C258.475800,647.488037 256.313629,641.965820 256.701202,635.275940 
	C257.231262,626.125854 264.790985,619.517944 274.630981,619.708618 
	C284.408173,619.897949 291.067169,626.368408 291.378937,635.731750 
	C291.580566,641.786682 289.946899,646.873047 284.446594,650.640259 
M265.558289,639.641663 
	C265.812317,640.255859 265.996979,640.911011 266.331421,641.477783 
	C268.947693,645.911560 272.886536,647.400513 277.264832,645.645386 
	C281.933075,643.773926 283.931793,639.636902 282.796661,634.195435 
	C281.856689,629.689514 277.943420,626.802612 273.295959,627.186707 
	C268.860443,627.553284 265.670197,630.987610 265.287659,635.888794 
	C265.210693,636.874878 265.358185,637.878479 265.558289,639.641663 
z"/>
<path fill="#000000" opacity="1.000000" stroke="none" 
	d="
M739.755981,649.861206 
	C728.315186,656.749573 715.726379,653.419189 711.881470,642.793213 
	C708.974915,634.760498 712.314209,625.547852 719.544434,621.651794 
	C727.304077,617.470398 737.443848,619.486023 742.532043,626.221130 
	C748.051331,633.526733 747.097534,642.527527 739.755981,649.861206 
M736.170837,641.589600 
	C738.890503,634.744019 736.295288,628.371887 730.368896,627.343994 
	C725.590210,626.515137 721.671448,628.700989 720.020508,633.116211 
	C718.305542,637.702454 719.855835,642.543152 723.798462,644.912720 
	C727.518188,647.148315 731.987366,646.151917 736.170837,641.589600 
z"/>
<path fill="#000000" opacity="1.000000" stroke="none" 
	d="
M393.512665,630.877808 
	C396.277588,634.283569 399.813660,632.342224 402.943329,632.756653 
	C405.439362,633.087280 408.162842,632.614380 408.161652,636.407837 
	C408.160522,640.102539 405.595032,640.114319 402.990845,640.122681 
	C401.327545,640.128052 399.662445,640.080444 398.001373,640.142334 
	C395.896606,640.220703 393.346130,639.757019 393.413116,643.132568 
	C393.473663,646.183838 395.842285,645.785645 397.766724,645.851685 
	C400.757660,645.954529 403.752960,645.932495 406.746460,645.957397 
	C409.155090,645.977417 410.404266,647.017761 410.368591,649.594421 
	C410.333862,652.102295 409.229004,653.240356 406.744446,653.225647 
	C400.756927,653.190125 394.768982,653.179565 388.781403,653.201721 
	C385.987366,653.212097 384.951538,651.676880 384.953308,649.113281 
	C384.959045,640.797058 384.972290,632.480896 384.958252,624.164673 
	C384.953308,621.227478 386.464020,619.967773 389.300110,619.978516 
	C394.788483,619.999268 400.277008,619.978638 405.765472,619.978210 
	C408.545380,619.978027 410.180786,621.111755 410.068024,624.151428 
	C409.950592,627.316162 407.730865,627.297302 405.487488,627.312256 
	C402.659973,627.331055 399.832428,627.370911 397.004913,627.370483 
	C394.881531,627.370178 393.426941,628.081726 393.512665,630.877808 
z"/>
<path fill="#000000" opacity="1.000000" stroke="none" 
	d="
M612.407349,643.797363 
	C615.814087,647.598389 620.000244,645.245789 623.760925,645.810608 
	C625.358398,646.050476 627.220703,645.378479 628.400696,646.935364 
	C629.369812,648.214111 629.236816,649.784424 628.782532,651.249878 
	C628.313965,652.761475 627.039307,653.156860 625.625793,653.164612 
	C619.636780,653.197327 613.647339,653.186951 607.658447,653.233887 
	C604.865662,653.255798 603.840088,651.754456 603.843689,649.162903 
	C603.855530,640.677490 603.860901,632.191956 603.813477,623.706726 
	C603.797546,620.853638 605.371338,619.932129 607.919067,619.945007 
	C613.575928,619.973511 619.232849,619.988403 624.889771,619.992371 
	C627.247314,619.994019 628.732117,620.806702 628.560181,623.499817 
	C628.414429,625.782349 627.672791,627.320496 625.025513,627.289062 
	C621.865723,627.251526 618.703735,627.317749 615.543945,627.391602 
	C613.638184,627.436096 612.313538,628.206421 612.394348,630.375854 
	C612.469604,632.396912 613.890747,632.751099 615.503784,632.783936 
	C617.998596,632.834717 620.494324,632.841309 622.989441,632.878540 
	C625.274048,632.912659 626.228699,634.137756 626.242920,636.362976 
	C626.256653,638.509583 625.496948,639.955505 623.186401,640.059265 
	C620.694763,640.171265 618.197571,640.190491 615.702759,640.192444 
	C613.522888,640.194153 612.153992,640.965210 612.407349,643.797363 
z"/>
<path fill="#000000" opacity="1.000000" stroke="none" 
	d="
M639.781677,645.807617 
	C642.914307,638.420044 645.958740,631.402222 648.914673,624.347351 
	C650.027649,621.691040 651.440430,619.851257 654.750916,619.948853 
	C657.941772,620.042969 659.433044,621.668701 660.564209,624.410706 
	C663.670471,631.940063 666.984070,639.383728 670.200623,646.867798 
	C670.915283,648.530457 671.692322,650.191040 671.543396,652.363586 
	C667.732605,653.856079 664.718872,653.997131 662.512390,649.637268 
	C660.070007,644.811279 649.910034,644.668762 647.079590,649.215088 
	C644.291870,653.692810 644.068970,653.777466 638.037842,652.583679 
	C636.927917,650.055054 639.204956,648.321899 639.781677,645.807617 
M653.288086,634.171753 
	C652.880615,635.523804 651.552917,637.017517 653.114624,638.222107 
	C654.316956,639.149536 655.883484,639.124390 657.098572,637.872498 
	C656.369568,633.538147 656.369568,633.538147 653.288086,634.171753 
z"/>
<path fill="#000000" opacity="1.000000" stroke="none" 
	d="
M808.205383,619.732788 
	C811.853455,619.538269 814.956177,620.066833 817.925598,621.260132 
	C819.717834,621.980347 821.407043,622.949158 820.175537,625.321289 
	C819.200806,627.199036 818.388367,629.537415 815.414734,628.323975 
	C813.231689,627.433289 810.986511,626.866333 808.609009,627.106262 
	C807.253784,627.243042 805.842224,627.494080 805.532532,629.113525 
	C805.208557,630.807861 806.521973,631.482117 807.788635,631.930420 
	C810.293152,632.816956 812.858704,633.529907 815.372681,634.391418 
	C819.352295,635.755127 821.981201,638.417725 822.116943,642.737244 
	C822.256348,647.176514 819.967651,650.422180 815.909119,652.105225 
	C810.046936,654.536316 804.193542,654.112488 798.578308,651.205444 
	C796.720032,650.243469 795.228638,648.930603 796.490356,646.426697 
	C797.696899,644.032532 799.264343,643.399231 801.724243,644.727356 
	C803.774780,645.834351 806.008911,646.613220 808.387695,646.615479 
	C810.411499,646.617432 812.787537,646.529968 813.145874,644.052002 
	C813.467468,641.827087 811.291748,641.143127 809.560364,640.561951 
	C807.829834,639.980896 806.017090,639.648376 804.275574,639.096008 
	C799.579468,637.606323 796.341797,634.837646 796.423584,629.477661 
	C796.491211,625.043579 799.615112,621.640503 804.817200,620.206787 
	C805.770203,619.944092 806.781799,619.893860 808.205383,619.732788 
z"/>
<path fill="#000000" opacity="1.000000" stroke="none" 
	d="
M531.963745,631.103271 
	C529.477661,635.886719 529.451965,640.241394 533.401794,643.670593 
	C537.238708,647.001770 541.688660,646.971252 545.811035,644.097839 
	C548.530334,642.202393 549.700928,644.021606 551.080750,645.686279 
	C552.915833,647.900269 551.503784,649.264160 549.759583,650.565125 
	C543.210144,655.450378 532.177185,654.412659 526.402344,648.346680 
	C520.453857,642.098267 520.379089,631.842773 526.232971,625.114929 
	C531.531677,619.025208 542.768250,617.767273 549.523315,622.513123 
	C551.055664,623.589722 552.749329,624.651489 551.156372,626.870361 
	C549.789978,628.773560 548.593445,630.833435 545.576111,629.073792 
	C540.762756,626.266724 536.119019,626.117188 531.963745,631.103271 
z"/>
<path fill="#000000" opacity="1.000000" stroke="none" 
	d="
M228.217041,643.900146 
	C232.182495,646.743408 236.112106,646.765198 239.721313,644.434265 
	C242.960251,642.342407 244.791275,643.926697 246.240509,646.329102 
	C247.958832,649.177673 245.161346,650.109314 243.495255,651.166931 
	C236.298996,655.735352 225.370102,653.761169 220.015335,647.052368 
	C215.217468,641.041260 215.615601,631.169983 220.887466,625.426880 
	C226.737015,619.054504 237.646240,617.781982 244.580994,622.677002 
	C245.784531,623.526550 247.481873,624.415283 246.295547,626.164978 
	C245.162491,627.836182 244.123184,630.130371 241.320450,629.368530 
	C240.849731,629.240540 240.438629,628.908142 239.979858,628.718994 
	C234.233536,626.349670 229.968002,626.905151 227.292084,630.360840 
	C224.326004,634.191284 224.537689,638.592590 228.217041,643.900146 
z"/>
<path fill="#000000" opacity="1.000000" stroke="none" 
	d="
M367.815521,619.978027 
	C370.445557,620.289978 373.344055,619.214233 374.054382,622.452393 
	C374.678894,625.299316 373.828156,627.633484 370.307251,627.251709 
	C364.974335,626.673462 363.734924,629.331604 364.010986,634.053284 
	C364.292023,638.859497 364.027710,643.697571 364.004333,648.521667 
	C363.990479,651.380432 363.129181,653.245789 359.719482,653.288757 
	C356.201416,653.333069 355.575989,651.449158 355.620422,648.549744 
	C355.701965,643.227661 355.484619,637.897400 355.690002,632.582031 
	C355.837982,628.752563 354.475555,627.015564 350.515656,627.279114 
	C348.816956,627.392151 346.778534,627.857605 345.675079,625.703369 
	C344.204803,622.832947 345.792389,620.156067 349.377655,620.052246 
	C355.361481,619.878845 361.353394,619.982727 367.815521,619.978027 
z"/>
<path fill="#000000" opacity="1.000000" stroke="none" 
	d="
M687.031250,619.906128 
	C691.674683,619.937134 695.824707,619.955750 699.974426,620.001770 
	C702.591858,620.030762 703.946655,621.268677 703.880493,624.001770 
	C703.816711,626.634583 702.314148,627.220764 699.985229,627.366516 
	C693.347595,627.782043 693.344055,627.860779 693.333252,634.538757 
	C693.325500,639.353027 693.279846,644.168518 693.374939,648.981018 
	C693.431763,651.854858 692.370544,653.270386 689.317993,653.239807 
	C686.379395,653.210388 685.049683,651.916870 685.046997,649.040527 
	C685.041931,643.562378 684.860474,638.080017 685.025757,632.607605 
	C685.137146,628.919617 684.080200,626.908142 679.984619,627.253723 
	C677.486511,627.464600 674.753967,627.615479 674.891724,623.721558 
	C675.016174,620.202209 677.379089,619.874512 680.063354,619.890564 
	C682.221375,619.903503 684.379578,619.901001 687.031250,619.906128 
z"/>
<path fill="#000000" opacity="1.000000" stroke="none" 
	d="
M473.768738,648.758667 
	C473.752502,642.957947 473.610260,637.624084 473.787384,632.300781 
	C473.907776,628.682373 472.578125,627.056824 468.864136,627.286194 
	C466.349213,627.441650 463.708191,627.560608 463.714691,623.698547 
	C463.721069,619.900452 466.322723,619.989746 468.859406,619.975891 
	C475.187622,619.941406 481.516296,619.977417 487.844757,619.999756 
	C490.423279,620.008850 492.423065,620.525879 492.325928,623.868835 
	C492.236633,626.941467 490.396637,627.537537 488.016693,627.274414 
	C483.252594,626.747864 481.913116,628.997009 482.159149,633.415894 
	C482.436432,638.395874 482.192474,643.404724 482.181305,648.401001 
	C482.175720,650.890747 481.941925,653.101990 478.610291,653.250549 
	C475.665070,653.381958 473.652985,652.661255 473.768738,648.758667 
z"/>
<path fill="#000000" opacity="1.000000" stroke="none" 
	d="
M794.318481,730.040527 
	C794.394836,724.708191 794.452209,719.733765 794.587524,714.761475 
	C794.625549,713.363831 794.046204,711.515930 796.074036,711.018127 
	C797.843018,710.583923 798.741089,712.081299 799.635742,713.241699 
	C801.662415,715.870178 803.599915,718.567200 805.600159,721.216309 
	C806.558838,722.486023 807.316895,723.988953 809.153198,724.743225 
	C810.607178,720.183838 808.444458,715.370178 810.716797,711.026062 
	C813.640869,713.459167 814.350647,726.577637 811.880798,733.116638 
	C805.771912,729.730469 803.718445,722.948669 798.070007,717.657471 
	C798.070007,722.198364 798.092957,725.846375 798.056702,729.493713 
	C798.045105,730.665527 797.925049,731.983521 796.571716,732.352966 
	C795.062439,732.764893 794.544312,731.669250 794.318481,730.040527 
z"/>
<path fill="#000000" opacity="1.000000" stroke="none" 
	d="
M773.992798,710.745239 
	C779.630737,712.584473 782.056213,716.423218 782.152344,721.767334 
	C782.247437,727.056824 779.424805,730.586182 774.684021,732.456299 
	C770.234741,734.211365 766.172974,733.066528 762.742737,729.832947 
	C759.429810,726.709717 758.568420,720.794434 760.670044,716.428650 
	C762.982117,711.625671 767.453369,709.630859 773.992798,710.745239 
M776.513550,716.248840 
	C775.301086,715.410889 774.192932,714.301208 772.855774,713.788269 
	C769.468384,712.488647 765.340027,714.509094 763.826050,717.971313 
	C762.060852,722.008118 763.534912,726.980713 767.171509,728.794617 
	C771.021362,730.714966 774.433777,729.724854 776.777588,726.335876 
	C778.799133,723.412842 778.480408,720.068359 776.513550,716.248840 
z"/>
<path fill="#000000" opacity="1.000000" stroke="none" 
	d="
M610.870178,711.585205 
	C618.348083,709.316833 622.972046,710.648010 625.999084,715.680725 
	C628.485229,719.814209 627.866272,726.168030 624.531555,729.541870 
	C621.377686,732.732666 617.458679,734.054993 613.156921,732.813416 
	C608.653503,731.513672 605.868103,728.191895 605.134827,723.559021 
	C604.342407,718.552368 605.895508,714.393127 610.870178,711.585205 
M617.987976,729.545532 
	C623.355957,727.024109 625.262146,722.804138 623.180481,718.050293 
	C621.725586,714.727844 617.377930,712.642883 614.123779,713.707031 
	C610.218811,714.983948 607.969604,719.796204 609.312561,724.362915 
	C610.456055,728.251404 613.316528,729.804077 617.987976,729.545532 
z"/>
<path fill="#000000" opacity="1.000000" stroke="none" 
	d="
M263.836365,710.095459 
	C269.574585,711.216187 273.399872,713.914307 274.225159,719.706909 
	C274.951080,724.802124 273.354767,728.969299 268.829498,731.589783 
	C264.958466,733.831360 260.909729,733.913086 257.051117,731.384277 
	C253.066544,728.772888 251.234650,725.027893 251.910095,720.310913 
	C252.536591,715.935730 254.640976,712.468994 259.074615,710.967468 
	C260.472748,710.493958 261.985260,710.358337 263.836365,710.095459 
M257.429688,715.991943 
	C256.917419,717.019958 256.296295,718.009033 255.912567,719.082947 
	C254.571594,722.835632 255.770630,726.012024 258.730194,728.333618 
	C261.295868,730.346130 264.271881,730.345642 267.047638,728.495789 
	C270.343079,726.299561 271.295380,723.061157 270.433502,719.389221 
	C269.104645,713.727539 263.742706,712.104187 257.429688,715.991943 
z"/>
<path fill="#000000" opacity="1.000000" stroke="none" 
	d="
M342.179138,725.967834 
	C342.001801,729.076233 343.505127,729.556641 345.916473,729.607178 
	C348.536102,729.662048 351.522003,728.189087 353.845367,730.789490 
	C351.457520,733.149414 341.095581,733.996399 339.107330,732.098877 
	C338.181702,731.215515 338.073853,730.033142 338.071655,728.873657 
	C338.062561,724.059631 338.070923,719.245056 338.146576,714.431763 
	C338.167175,713.120544 338.224762,711.297974 339.714752,711.092896 
	C344.335693,710.456909 349.015472,710.043945 354.088928,711.245667 
	C352.062378,715.058044 349.110992,713.648743 346.728210,713.906982 
	C344.547882,714.143372 342.132904,713.914001 342.267883,717.151917 
	C342.393677,720.169739 344.772003,719.573730 346.679321,719.832825 
	C348.610596,720.095154 351.105225,718.879272 352.259705,721.725708 
	C350.979736,724.172546 348.730133,722.935181 346.939148,723.207703 
	C345.078308,723.490723 342.735138,722.689697 342.179138,725.967834 
z"/>
<path fill="#000000" opacity="1.000000" stroke="none" 
	d="
M479.014343,713.964233 
	C476.380920,714.094421 473.925842,714.034790 474.192047,717.276794 
	C474.435944,720.246948 476.872955,719.572449 478.776245,719.793030 
	C480.620117,720.006653 482.841125,718.989807 484.267212,721.434631 
	C482.950409,724.338257 480.308350,723.064270 478.267700,723.173523 
	C475.860504,723.302490 473.989471,723.587952 473.866150,726.606018 
	C473.720184,730.178772 476.251953,729.416077 478.318207,729.604370 
	C480.672546,729.818909 483.245544,728.953064 485.475769,730.706299 
	C483.429840,732.790161 474.727661,734.085571 472.028320,732.738708 
	C468.864044,731.159790 470.162292,728.096436 469.946289,725.600403 
	C469.760132,723.449463 469.706696,721.250610 469.935272,719.109314 
	C470.235199,716.299805 468.479919,712.054260 471.995209,711.122253 
	C476.172668,710.014709 480.920746,709.849060 485.591278,711.588745 
	C483.827087,714.642273 481.425293,713.634949 479.014343,713.964233 
z"/>
<path fill="#000000" opacity="1.000000" stroke="none" 
	d="
M704.069946,724.957520 
	C704.901245,727.604187 706.693237,729.594177 706.329407,732.805542 
	C701.910461,732.517273 701.453796,726.691284 696.255859,726.954285 
	C691.466553,727.196472 690.259094,731.451843 686.117249,733.063293 
	C686.389771,727.255188 689.360352,723.306580 691.147888,719.025635 
	C692.350586,716.145203 692.269348,711.327759 696.110168,711.145081 
	C700.217957,710.949890 699.561096,716.100281 701.323792,718.685120 
	C702.518127,720.436462 703.080688,722.618591 704.069946,724.957520 
M698.742004,722.045105 
	C697.876831,720.446289 698.140320,718.196106 696.103516,717.096680 
	C694.490051,718.893555 693.765625,720.767151 693.776611,723.461121 
	C695.568115,723.403076 697.322998,724.996582 698.742004,722.045105 
z"/>
<path fill="#000000" opacity="1.000000" stroke="none" 
	d="
M585.454346,719.676697 
	C586.441833,719.957092 587.080200,720.137695 587.706604,720.352844 
	C591.014221,721.488770 594.071228,723.046875 593.644409,727.197571 
	C593.298462,730.561890 590.948425,732.507996 587.686951,732.976868 
	C583.777771,733.538879 580.059631,733.112244 577.680359,729.341492 
	C577.497864,729.052246 577.831726,728.437134 577.929871,727.952637 
	C580.443054,726.852234 581.881592,729.367371 583.953857,729.565308 
	C586.195435,729.779358 588.581299,729.963623 589.380310,727.360352 
	C590.234741,724.576416 587.625610,724.266785 585.879578,723.513184 
	C585.124023,723.187134 584.282532,723.066833 583.502319,722.790222 
	C580.350647,721.673218 577.656921,720.066589 577.934082,716.161438 
	C578.160889,712.967041 579.964172,710.975952 583.175293,710.429749 
	C586.863892,709.802368 590.261658,709.996643 592.468811,713.679688 
	C590.505188,716.156128 588.935181,714.192566 587.377991,713.790466 
	C585.255493,713.242371 583.181702,713.263611 582.200867,715.403076 
	C580.999451,718.023438 583.228638,718.806274 585.454346,719.676697 
z"/>
<path fill="#000000" opacity="1.000000" stroke="none" 
	d="
M532.822266,727.822876 
	C526.936951,726.056946 522.841064,728.315918 520.194641,732.933228 
	C518.579529,731.976807 518.546997,731.162598 518.889954,730.356384 
	C521.356750,724.557617 523.810669,718.752625 526.364502,712.992126 
	C527.545715,710.327698 529.724182,709.632019 531.068604,712.410034 
	C534.132690,718.741516 536.647339,725.338806 539.561829,732.246704 
	C534.875427,733.316650 535.339539,728.910950 532.822266,727.822876 
M526.216797,722.030701 
	C527.244751,725.302979 529.332336,723.595093 531.347168,723.332703 
	C531.436218,720.677246 530.603943,718.716553 529.034668,716.918701 
	C527.332336,718.219177 527.125366,719.965759 526.216797,722.030701 
z"/>
<path fill="#000000" opacity="1.000000" stroke="none" 
	d="
M559.253296,729.559326 
	C562.906067,726.518555 562.786011,725.267334 558.969910,723.729431 
	C557.586609,723.171936 556.093994,722.882629 554.718384,722.309753 
	C551.899414,721.135864 549.824707,719.245544 550.193237,715.908997 
	C550.581421,712.394409 553.113342,710.845581 556.285645,710.242310 
	C557.399170,710.030579 558.662598,709.980835 559.730713,710.292236 
	C561.675354,710.859131 565.017883,710.922119 564.422668,713.589478 
	C563.727600,716.704041 561.196289,714.241150 559.510681,713.834534 
	C557.395325,713.324219 555.267273,713.131348 554.504456,715.552673 
	C553.723450,718.031860 555.651428,719.080078 557.702148,719.728699 
	C558.494995,719.979492 559.313782,720.158325 560.089111,720.453125 
	C563.326111,721.683777 566.638855,723.227722 565.882568,727.392395 
	C565.105957,731.669067 561.620422,733.064209 557.631470,733.131897 
	C556.333374,733.153992 554.947815,732.921570 553.744263,732.445984 
	C552.001892,731.757568 549.189453,731.177673 550.302368,728.626465 
	C551.284424,726.375244 553.141174,728.486267 554.516418,729.051270 
	C555.955383,729.642456 557.392700,729.826416 559.253296,729.559326 
z"/>
<path fill="#000000" opacity="1.000000" stroke="none" 
	d="
M239.988785,713.438721 
	C239.185516,717.697632 237.169495,715.200806 235.498734,714.461365 
	C231.059677,712.497009 227.176712,713.897400 225.231400,718.215881 
	C223.363724,722.362000 224.883148,726.876038 228.779373,728.842773 
	C230.850494,729.888306 232.861298,729.870239 234.991562,728.919373 
	C236.431061,728.276794 237.539673,726.624268 239.716614,727.345703 
	C241.128891,730.133972 238.741974,731.038940 237.020782,731.980286 
	C232.860245,734.255432 227.496658,733.323975 224.182144,729.959290 
	C220.592957,726.315857 219.611328,720.437927 221.875732,716.149109 
	C224.138992,711.862427 229.300430,709.432434 234.051239,710.444275 
	C236.177567,710.897156 238.224884,711.547974 239.988785,713.438721 
z"/>
<path fill="#000000" opacity="1.000000" stroke="none" 
	d="
M372.244751,710.994202 
	C375.780426,709.715027 378.857361,710.173645 381.810730,711.569397 
	C383.116028,712.186218 384.999969,712.932434 384.148712,714.762695 
	C383.202179,716.797546 381.664429,715.350708 380.350861,714.768799 
	C374.584717,712.214172 370.283661,714.247498 369.066498,720.041016 
	C368.392334,723.250061 369.059937,726.030457 371.721100,728.075867 
	C374.203857,729.984131 376.873657,730.140320 379.682800,728.657837 
	C380.930573,727.999329 382.099304,726.734253 384.195374,727.804932 
	C384.105652,731.930969 380.785400,732.477051 377.903900,732.983215 
	C372.506287,733.931396 367.355499,730.488831 365.532532,725.096497 
	C363.598389,719.375366 365.832611,714.460754 372.244751,710.994202 
z"/>
<path fill="#000000" opacity="1.000000" stroke="none" 
	d="
M643.610779,717.683289 
	C642.050720,720.583618 642.294250,723.199707 643.549133,725.679810 
	C644.956421,728.461182 647.404358,729.579224 650.501770,729.681763 
	C653.081909,729.767090 654.855774,726.304993 657.806580,728.011353 
	C656.219177,732.453613 651.473938,734.344360 646.545898,732.620178 
	C640.517334,730.510864 637.308167,723.031494 639.836060,716.981873 
	C642.295532,711.096069 648.910950,708.539490 654.838440,711.271606 
	C656.269043,711.931091 658.558777,712.594849 657.765137,714.607971 
	C656.769531,717.133301 655.019470,715.190430 653.698242,714.506897 
	C649.459473,712.314148 646.371216,713.917786 643.610779,717.683289 
z"/>
<path fill="#000000" opacity="1.000000" stroke="none" 
	d="
M446.527161,731.320679 
	C443.572388,724.548889 440.807465,718.091248 438.042511,711.633667 
	C438.631134,711.356445 439.219727,711.079285 439.808319,710.802063 
	C445.381226,714.262329 444.603882,721.657166 448.654510,726.462463 
	C452.169434,721.628174 452.324677,714.803955 456.820892,710.562683 
	C458.931671,711.958740 458.408783,713.103210 457.966553,714.160217 
	C455.784210,719.376648 453.595184,724.590698 451.342468,729.776978 
	C450.447845,731.836670 449.505524,734.130371 446.527161,731.320679 
z"/>
<path fill="#000000" opacity="1.000000" stroke="none" 
	d="
M400.453308,710.612793 
	C404.448883,711.149109 408.298889,709.458618 412.028687,711.567749 
	C411.494293,712.413513 411.252777,713.144531 410.997040,713.149536 
	C404.735992,713.272034 404.477509,717.066895 404.903168,722.042786 
	C405.196625,725.473511 406.051575,729.292603 403.756042,732.447693 
	C401.657074,732.584412 401.231018,731.324158 401.065125,729.937988 
	C400.927246,728.786011 400.984406,727.612000 400.918488,726.449829 
	C400.600037,720.835327 403.602264,713.713013 393.815094,712.720703 
	C395.726471,709.468750 398.120422,710.936951 400.453308,710.612793 
z"/>
<path fill="#000000" opacity="1.000000" stroke="none" 
	d="
M727.826538,710.271118 
	C729.659851,710.424133 731.330200,710.172852 731.797607,712.825073 
	C722.875854,713.403870 725.455688,720.085632 725.078186,725.470459 
	C724.911072,727.854370 726.417908,732.280273 723.205688,732.115234 
	C719.400269,731.919678 721.729126,727.626404 721.518738,725.097107 
	C721.395630,723.616211 721.493958,722.118042 721.462158,720.628235 
	C721.382874,716.916260 720.758667,713.651733 715.956482,713.549316 
	C715.501099,713.539612 715.062134,712.759155 713.973083,711.728760 
	C718.730164,709.739075 723.253601,711.230286 727.826538,710.271118 
z"/>
<path fill="#000000" opacity="1.000000" stroke="none" 
	d="
M286.805908,716.344116 
	C287.148071,714.125244 285.925690,711.783264 288.557709,710.846741 
	C290.677063,711.466492 290.198792,713.185486 290.261047,714.584290 
	C290.349579,716.574219 290.277130,718.570923 290.295135,720.564514 
	C290.374817,729.383118 289.318604,729.369995 298.262665,729.630859 
	C299.373505,729.663330 300.659943,729.492310 301.443695,731.625854 
	C297.503113,734.204346 293.028778,733.332947 288.969604,732.633850 
	C285.665466,732.064758 286.947174,728.580505 286.828735,726.265686 
	C286.667664,723.117493 286.799408,719.954346 286.805908,716.344116 
z"/>
<path fill="#000000" opacity="1.000000" stroke="none" 
	d="
M323.453674,732.969055 
	C310.815796,733.212402 312.943726,733.211792 312.721222,723.020142 
	C312.656067,720.035889 312.655273,717.048401 312.716522,714.064209 
	C312.742279,712.809082 312.448761,711.019104 314.309753,710.956299 
	C316.526642,710.881470 316.210022,712.843384 316.233002,714.259033 
	C316.286774,717.575256 316.423676,720.907837 316.173065,724.206848 
	C315.867493,728.229614 317.231506,730.089417 321.488556,729.658875 
	C323.176910,729.488159 325.135529,728.968872 326.699158,730.486694 
	C327.048187,732.816833 325.254852,732.639832 323.453674,732.969055 
z"/>
<path fill="#000000" opacity="1.000000" stroke="none" 
	d="
M426.733887,712.133545 
	C426.758057,719.209290 428.218658,726.052673 425.921539,732.599182 
	C423.370361,732.376709 423.098602,731.001526 423.077118,729.678528 
	C422.991089,724.375488 422.934326,719.069763 423.017059,713.767273 
	C423.054565,711.362732 423.794159,709.592712 426.733887,712.133545 
z"/>
<path fill="#000000" opacity="1.000000" stroke="none" 
	d="
M742.988831,719.089966 
	C743.374207,716.024292 742.056396,712.993835 744.594421,710.989258 
	C746.726257,711.250732 746.985657,712.627686 747.001953,713.952759 
	C747.065247,719.100159 747.058472,724.249207 747.003540,729.396790 
	C746.989502,730.713257 746.868591,732.296875 745.092407,732.369446 
	C743.255554,732.444397 743.107178,730.844360 743.068787,729.532410 
	C742.971741,726.212952 743.005737,722.889771 742.988831,719.089966 
z"/>
<path fill="#000000" opacity="1.000000" stroke="none" 
	d="
M675.065125,716.334717 
	C675.049316,722.000244 675.003052,727.209534 673.848694,732.309082 
	C670.441589,732.228760 670.996094,729.987549 670.949890,728.355835 
	C670.833252,724.236023 670.802307,720.108154 670.931458,715.989563 
	C670.988525,714.170898 670.046204,711.185364 672.612000,710.991394 
	C675.788025,710.751160 674.755005,713.942078 675.065125,716.334717 
z"/>
</svg>